<svg width="64" height="64" viewBox="0 0 64 64" fill="none" xmlns="http://www.w3.org/2000/svg">
<path d="M63.9996 33.778H33.2803L11.5662 55.4921C16.0015 59.3983 21.4433 61.9827 27.2735 62.9518C33.1038 63.9209 39.089 63.2359 44.5495 60.9745C50.01 58.7132 54.7271 54.9661 58.1652 50.1587C61.6033 45.3514 63.6246 39.6764 63.9996 33.778Z" fill="#6EC142"/>
<path d="M8.77603 52.6764C4.86735 48.2438 2.2808 42.8035 1.31046 36.9739C0.340128 31.1443 1.02494 25.1594 3.28705 19.6997C5.54915 14.24 9.29777 9.52458 14.1067 6.08952C18.9156 2.65445 24.5919 0.637613 30.4901 0.268311V30.9877L8.77603 52.7017V52.6764Z" fill="#6EC142"/>
<path d="M34.4485 0.268311V29.8208H64.001C63.5268 22.1382 60.261 14.8938 54.8182 9.45104C49.3755 4.00829 42.1311 0.742501 34.4485 0.268311V0.268311Z" fill="#9AFA67"/>
</svg>
